<svg width="24" height="24" viewBox="0 0 24 24" fill="none" xmlns="http://www.w3.org/2000/svg">
<path d="M23 11.24L24 10.24V0.999977L23 0H13.76L12.8 0.999977V6.36L16.76 2.39997L17.84 3.47995L12.88 8.47996L12.8 8.55996L12.48 8.87997H11.52L11.2 8.55996L11.12 8.47996L6.15997 3.47995L7.24 2.39997L11.2 6.36V0.999977L10.24 0H0.999965L0 0.999977V10.24L0.999965 11.24H6.31998L2.36 7.27997L3.47997 6.15999L8.43997 11.12L8.55997 11.24L8.83998 11.52V12.52L8.55997 12.8L8.43997 12.88L3.47997 17.88L2.36 16.76L6.31998 12.8H0.999965L0 13.8V23L0.999965 24H10.24L11.2 23V17.68L7.24 21.64L6.15997 20.56L11.12 15.56L11.2 15.48L11.52 15.16H12.48L12.8 15.48L12.88 15.56L17.84 20.56L16.76 21.64L12.8 17.68V23L13.76 24H23L24 23V13.8L23 12.8H17.68L21.64 16.76L20.52 17.88L15.56 12.88L15.44 12.8L15.16 12.52V11.52L15.44 11.24L15.56 11.12L20.52 6.15999L21.64 7.27997L17.68 11.24H23Z" fill="#9713FF"/>
</svg>
